<?xml version="1.0" encoding="UTF-8"?>
<!DOCTYPE svg PUBLIC "-//W3C//DTD SVG 1.1//EN" "http://www.w3.org/Graphics/SVG/1.1/DTD/svg11.dtd">
<svg width="230mm" height="132mm" viewBox="0 0 23000 13200" version="1.1" xmlns="http://www.w3.org/2000/svg" xmlns:xlink="http://www.w3.org/1999/xlink" stroke-width="28.222" stroke-linejoin="round" xml:space="preserve">
 <path fill="rgb(255,255,255)" stroke="none" d="M 11513,13232 L 0,13232 0,0 23026,0 23026,13232 11513,13232 Z"/>
 <path fill="none" stroke="rgb(179,179,179)" stroke-linejoin="round" d="M 10169,11340 L 2648,11340 2648,1642 17689,1642 17689,11340 10169,11340 Z"/>
 <path fill="none" stroke="rgb(179,179,179)" stroke-linejoin="round" d="M 17689,11339 L 2648,11339"/>
 <path fill="none" stroke="rgb(179,179,179)" stroke-linejoin="round" d="M 17689,10369 L 2648,10369"/>
 <path fill="none" stroke="rgb(179,179,179)" stroke-linejoin="round" d="M 17689,9399 L 2648,9399"/>
 <path fill="none" stroke="rgb(179,179,179)" stroke-linejoin="round" d="M 17689,8429 L 2648,8429"/>
 <path fill="none" stroke="rgb(179,179,179)" stroke-linejoin="round" d="M 17689,7459 L 2648,7459"/>
 <path fill="none" stroke="rgb(179,179,179)" stroke-linejoin="round" d="M 17689,6490 L 2648,6490"/>
 <path fill="none" stroke="rgb(179,179,179)" stroke-linejoin="round" d="M 17689,5520 L 2648,5520"/>
 <path fill="none" stroke="rgb(179,179,179)" stroke-linejoin="round" d="M 17689,4550 L 2648,4550"/>
 <path fill="none" stroke="rgb(179,179,179)" stroke-linejoin="round" d="M 17689,3580 L 2648,3580"/>
 <path fill="none" stroke="rgb(179,179,179)" stroke-linejoin="round" d="M 17689,2610 L 2648,2610"/>
 <path fill="none" stroke="rgb(179,179,179)" stroke-linejoin="round" d="M 17689,1641 L 2648,1641"/>
 <path fill="none" stroke="rgb(179,179,179)" stroke-linejoin="round" d="M 2648,11489 L 2648,11339"/>
 <path fill="none" stroke="rgb(179,179,179)" stroke-linejoin="round" d="M 2648,11489 L 2648,11339"/>
 <path fill="none" stroke="rgb(179,179,179)" stroke-linejoin="round" d="M 5656,11489 L 5656,11339"/>
 <path fill="none" stroke="rgb(179,179,179)" stroke-linejoin="round" d="M 5656,11489 L 5656,11339"/>
 <path fill="none" stroke="rgb(179,179,179)" stroke-linejoin="round" d="M 8664,11489 L 8664,11339"/>
 <path fill="none" stroke="rgb(179,179,179)" stroke-linejoin="round" d="M 8664,11489 L 8664,11339"/>
 <path fill="none" stroke="rgb(179,179,179)" stroke-linejoin="round" d="M 11672,11489 L 11672,11339"/>
 <path fill="none" stroke="rgb(179,179,179)" stroke-linejoin="round" d="M 11672,11489 L 11672,11339"/>
 <path fill="none" stroke="rgb(179,179,179)" stroke-linejoin="round" d="M 14680,11489 L 14680,11339"/>
 <path fill="none" stroke="rgb(179,179,179)" stroke-linejoin="round" d="M 14680,11489 L 14680,11339"/>
 <path fill="none" stroke="rgb(179,179,179)" stroke-linejoin="round" d="M 17689,11489 L 17689,11339"/>
 <path fill="none" stroke="rgb(179,179,179)" stroke-linejoin="round" d="M 17689,11489 L 17689,11339"/>
 <path fill="none" stroke="rgb(179,179,179)" stroke-linejoin="round" d="M 2648,11339 L 17689,11339"/>
 <path fill="none" stroke="rgb(179,179,179)" stroke-linejoin="round" d="M 2498,11339 L 2648,11339"/>
 <path fill="none" stroke="rgb(179,179,179)" stroke-linejoin="round" d="M 2498,11339 L 2648,11339"/>
 <path fill="none" stroke="rgb(179,179,179)" stroke-linejoin="round" d="M 2498,10369 L 2648,10369"/>
 <path fill="none" stroke="rgb(179,179,179)" stroke-linejoin="round" d="M 2498,10369 L 2648,10369"/>
 <path fill="none" stroke="rgb(179,179,179)" stroke-linejoin="round" d="M 2498,9399 L 2648,9399"/>
 <path fill="none" stroke="rgb(179,179,179)" stroke-linejoin="round" d="M 2498,9399 L 2648,9399"/>
 <path fill="none" stroke="rgb(179,179,179)" stroke-linejoin="round" d="M 2498,8429 L 2648,8429"/>
 <path fill="none" stroke="rgb(179,179,179)" stroke-linejoin="round" d="M 2498,8429 L 2648,8429"/>
 <path fill="none" stroke="rgb(179,179,179)" stroke-linejoin="round" d="M 2498,7459 L 2648,7459"/>
 <path fill="none" stroke="rgb(179,179,179)" stroke-linejoin="round" d="M 2498,7459 L 2648,7459"/>
 <path fill="none" stroke="rgb(179,179,179)" stroke-linejoin="round" d="M 2498,6490 L 2648,6490"/>
 <path fill="none" stroke="rgb(179,179,179)" stroke-linejoin="round" d="M 2498,6490 L 2648,6490"/>
 <path fill="none" stroke="rgb(179,179,179)" stroke-linejoin="round" d="M 2498,5520 L 2648,5520"/>
 <path fill="none" stroke="rgb(179,179,179)" stroke-linejoin="round" d="M 2498,5520 L 2648,5520"/>
 <path fill="none" stroke="rgb(179,179,179)" stroke-linejoin="round" d="M 2498,4550 L 2648,4550"/>
 <path fill="none" stroke="rgb(179,179,179)" stroke-linejoin="round" d="M 2498,4550 L 2648,4550"/>
 <path fill="none" stroke="rgb(179,179,179)" stroke-linejoin="round" d="M 2498,3580 L 2648,3580"/>
 <path fill="none" stroke="rgb(179,179,179)" stroke-linejoin="round" d="M 2498,3580 L 2648,3580"/>
 <path fill="none" stroke="rgb(179,179,179)" stroke-linejoin="round" d="M 2498,2610 L 2648,2610"/>
 <path fill="none" stroke="rgb(179,179,179)" stroke-linejoin="round" d="M 2498,2610 L 2648,2610"/>
 <path fill="none" stroke="rgb(179,179,179)" stroke-linejoin="round" d="M 2498,1641 L 2648,1641"/>
 <path fill="none" stroke="rgb(179,179,179)" stroke-linejoin="round" d="M 2498,1641 L 2648,1641"/>
 <path fill="none" stroke="rgb(179,179,179)" stroke-linejoin="round" d="M 2648,11339 L 2648,1641"/>
 <path fill="none" stroke="rgb(0,69,134)" stroke-width="80" stroke-linejoin="round" d="M 2648,7676 L 5656,6558 8664,6049 11672,5551 14680,5258 17689,2918"/>
 <path fill="none" stroke="rgb(129,212,26)" stroke-width="80" stroke-linejoin="round" d="M 2648,8085 L 5656,7844 8664,7192 11672,6475 14680,5913 17689,5395"/>
 <path fill="none" stroke="rgb(255,191,0)" stroke-width="80" stroke-linejoin="round" d="M 2648,8164 L 5656,7731 8664,6923 11672,6104 14680,5027 17689,3368"/>
 <path fill="none" stroke="rgb(255,64,0)" stroke-width="80" stroke-linejoin="round" d="M 2648,8003 L 5656,7785 8664,7342 11672,6503 14680,5706 17689,4699"/>
 <text class="TextShape"><tspan class="TextParagraph" font-family="Liberation Sans, sans-serif" font-size="353px" font-weight="400"><tspan class="TextPosition" x="2370" y="11907"><tspan fill="rgb(0,0,0)" stroke="none">512</tspan></tspan></tspan></text>
 <text class="TextShape"><tspan class="TextParagraph" font-family="Liberation Sans, sans-serif" font-size="353px" font-weight="400"><tspan class="TextPosition" x="5285" y="11907"><tspan fill="rgb(0,0,0)" stroke="none">1024</tspan></tspan></tspan></text>
 <text class="TextShape"><tspan class="TextParagraph" font-family="Liberation Sans, sans-serif" font-size="353px" font-weight="400"><tspan class="TextPosition" x="8293" y="11907"><tspan fill="rgb(0,0,0)" stroke="none">2048</tspan></tspan></tspan></text>
 <text class="TextShape"><tspan class="TextParagraph" font-family="Liberation Sans, sans-serif" font-size="353px" font-weight="400"><tspan class="TextPosition" x="11302" y="11907"><tspan fill="rgb(0,0,0)" stroke="none">4096</tspan></tspan></tspan></text>
 <text class="TextShape"><tspan class="TextParagraph" font-family="Liberation Sans, sans-serif" font-size="353px" font-weight="400"><tspan class="TextPosition" x="14310" y="11907"><tspan fill="rgb(0,0,0)" stroke="none">8192</tspan></tspan></tspan></text>
 <text class="TextShape"><tspan class="TextParagraph" font-family="Liberation Sans, sans-serif" font-size="353px" font-weight="400"><tspan class="TextPosition" x="17227" y="11907"><tspan fill="rgb(0,0,0)" stroke="none">16384</tspan></tspan></tspan></text>
 <text class="TextShape"><tspan class="TextParagraph" font-family="Liberation Sans, sans-serif" font-size="353px" font-weight="400"><tspan class="TextPosition" x="2213" y="11460"><tspan fill="rgb(0,0,0)" stroke="none">0</tspan></tspan></tspan></text>
 <text class="TextShape"><tspan class="TextParagraph" font-family="Liberation Sans, sans-serif" font-size="353px" font-weight="400"><tspan class="TextPosition" x="1472" y="10490"><tspan fill="rgb(0,0,0)" stroke="none">10000</tspan></tspan></tspan></text>
 <text class="TextShape"><tspan class="TextParagraph" font-family="Liberation Sans, sans-serif" font-size="353px" font-weight="400"><tspan class="TextPosition" x="1472" y="9520"><tspan fill="rgb(0,0,0)" stroke="none">20000</tspan></tspan></tspan></text>
 <text class="TextShape"><tspan class="TextParagraph" font-family="Liberation Sans, sans-serif" font-size="353px" font-weight="400"><tspan class="TextPosition" x="1472" y="8550"><tspan fill="rgb(0,0,0)" stroke="none">30000</tspan></tspan></tspan></text>
 <text class="TextShape"><tspan class="TextParagraph" font-family="Liberation Sans, sans-serif" font-size="353px" font-weight="400"><tspan class="TextPosition" x="1472" y="7580"><tspan fill="rgb(0,0,0)" stroke="none">40000</tspan></tspan></tspan></text>
 <text class="TextShape"><tspan class="TextParagraph" font-family="Liberation Sans, sans-serif" font-size="353px" font-weight="400"><tspan class="TextPosition" x="1472" y="6610"><tspan fill="rgb(0,0,0)" stroke="none">50000</tspan></tspan></tspan></text>
 <text class="TextShape"><tspan class="TextParagraph" font-family="Liberation Sans, sans-serif" font-size="353px" font-weight="400"><tspan class="TextPosition" x="1472" y="5640"><tspan fill="rgb(0,0,0)" stroke="none">60000</tspan></tspan></tspan></text>
 <text class="TextShape"><tspan class="TextParagraph" font-family="Liberation Sans, sans-serif" font-size="353px" font-weight="400"><tspan class="TextPosition" x="1472" y="4670"><tspan fill="rgb(0,0,0)" stroke="none">70000</tspan></tspan></tspan></text>
 <text class="TextShape"><tspan class="TextParagraph" font-family="Liberation Sans, sans-serif" font-size="353px" font-weight="400"><tspan class="TextPosition" x="1472" y="3700"><tspan fill="rgb(0,0,0)" stroke="none">80000</tspan></tspan></tspan></text>
 <text class="TextShape"><tspan class="TextParagraph" font-family="Liberation Sans, sans-serif" font-size="353px" font-weight="400"><tspan class="TextPosition" x="1472" y="2730"><tspan fill="rgb(0,0,0)" stroke="none">90000</tspan></tspan></tspan></text>
 <text class="TextShape"><tspan class="TextParagraph" font-family="Liberation Sans, sans-serif" font-size="353px" font-weight="400"><tspan class="TextPosition" x="1287" y="1761"><tspan fill="rgb(0,0,0)" stroke="none">100000</tspan></tspan></tspan></text>
 <text class="TextShape"><tspan class="TextParagraph" font-family="Liberation Sans, sans-serif" font-size="459px" font-weight="400"><tspan class="TextPosition" x="6684" y="935"><tspan fill="rgb(0,0,0)" stroke="none">G1GC, GC pause times, absolut (lower is better)</tspan></tspan></tspan></text>
 <path fill="none" stroke="rgb(0,69,134)" stroke-width="80" stroke-linejoin="round" d="M 18914,5868 L 19714,5868"/>
 <path fill="none" stroke="rgb(129,212,26)" stroke-width="80" stroke-linejoin="round" d="M 18914,6366 L 19714,6366"/>
 <path fill="none" stroke="rgb(255,191,0)" stroke-width="80" stroke-linejoin="round" d="M 18914,6863 L 19714,6863"/>
 <path fill="none" stroke="rgb(255,64,0)" stroke-width="80" stroke-linejoin="round" d="M 18914,7361 L 19714,7361"/>
 <text class="TextShape"><tspan class="TextParagraph" font-family="Liberation Sans, sans-serif" font-size="353px" font-weight="400"><tspan class="TextPosition" x="19814" y="5988"><tspan fill="rgb(0,0,0)" stroke="none">22-bit-flat</tspan></tspan></tspan></text>
 <text class="TextShape"><tspan class="TextParagraph" font-family="Liberation Sans, sans-serif" font-size="353px" font-weight="400"><tspan class="TextPosition" x="19814" y="6486"><tspan fill="rgb(0,0,0)" stroke="none">26-bit</tspan></tspan></tspan></text>
 <text class="TextShape"><tspan class="TextParagraph" font-family="Liberation Sans, sans-serif" font-size="353px" font-weight="400"><tspan class="TextPosition" x="19814" y="6983"><tspan fill="rgb(0,0,0)" stroke="none">22-bit-Klasstable</tspan></tspan></tspan></text>
 <text class="TextShape"><tspan class="TextParagraph" font-family="Liberation Sans, sans-serif" font-size="353px" font-weight="400"><tspan class="TextPosition" x="19814" y="7481"><tspan fill="rgb(0,0,0)" stroke="none">22-bit-uneven-align</tspan></tspan></tspan></text>
 <text class="TextShape"><tspan class="TextParagraph" font-family="Liberation Sans, sans-serif" font-size="318px" font-weight="400"><tspan class="TextPosition" x="8529" y="12638"><tspan fill="rgb(0,0,0)" stroke="none">Number of Classes</tspan></tspan></tspan></text>
 <text class="TextShape" transform="rotate(-90 837 9109)"><tspan class="TextParagraph" font-family="Liberation Sans, sans-serif" font-size="318px" font-weight="400"><tspan class="TextPosition" x="837" y="9109"><tspan fill="rgb(0,0,0)" stroke="none">Milliseconds (Sum, 100 Full GCs)</tspan></tspan></tspan></text>
</svg>